# xmcd CD database file
#
# Track frame offsets:
#	150
#	16276
#	32478
#	49639
#	64812
#	82158
#	99384
#	117168
#	136731
#	151527
#	173268
#	187687
#	199062
#	213845
#
# Disc length: 3090 seconds
#
# Revision: 0
# Processed by: cddbd v1.5.2PL0 Copyright (c) Steve Scherf et al.
# Submitted via: CDex 1.51
#
DISCID=9f0c100e
DTITLE=Milionário e José Rico - Disco de Platina
DYEAR=2000
DGENRE=Country
TTITLE0=Viva a Vida!
TTITLE1=Sonho de um Caminhoneiro
TTITLE2=Meu Mundo Vazio
TTITLE3=Duas Camisas
TTITLE4=Tribuna do Amor
TTITLE5=Praia Deserta
TTITLE6=Vontade Dividida
TTITLE7=Sonhei Com Você
TTITLE8=Cabecinha no Ombro
TTITLE9=Lembrança
TTITLE10=Paizão de um Homem
TTITLE11=O Tropeiro
TTITLE12=Gangorra
TTITLE13=Amada Amante
EXTD=YEAR: 2000
EXTT0=
EXTT1=
EXTT2=
EXTT3=
EXTT4=
EXTT5=
EXTT6=
EXTT7=
EXTT8=
EXTT9=
EXTT10=
EXTT11=
EXTT12=
EXTT13=
PLAYORDER=
